<mxfile host="app.diagrams.net" agent="Mozilla/5.0 (Windows NT 10.0; Win64; x64) AppleWebKit/537.36 (KHTML, like Gecko) Chrome/134.0.0.0 Safari/537.36" version="26.1.1">
  <diagram name="Page-1" id="s5elWZQq7o4otw0xxNM9">
    <mxGraphModel dx="1101" dy="565" grid="1" gridSize="10" guides="1" tooltips="1" connect="1" arrows="1" fold="1" page="1" pageScale="1" pageWidth="850" pageHeight="1100" math="0" shadow="0">
      <root>
        <mxCell id="0" />
        <mxCell id="1" parent="0" />
        <mxCell id="v-fkYHvZlNzGSlhuuZHb-2" value="" style="rounded=0;whiteSpace=wrap;html=1;" vertex="1" parent="1">
          <mxGeometry x="210" y="30" width="680" height="910" as="geometry" />
        </mxCell>
        <mxCell id="v-fkYHvZlNzGSlhuuZHb-3" value="pepiniere" style="text;html=1;align=center;verticalAlign=middle;whiteSpace=wrap;rounded=0;" vertex="1" parent="1">
          <mxGeometry x="530" y="40" width="60" height="30" as="geometry" />
        </mxCell>
        <mxCell id="v-fkYHvZlNzGSlhuuZHb-7" style="rounded=0;orthogonalLoop=1;jettySize=auto;html=1;exitX=0.5;exitY=0.5;exitDx=0;exitDy=0;exitPerimeter=0;entryX=0;entryY=0.5;entryDx=0;entryDy=0;endArrow=none;startFill=0;" edge="1" parent="1" source="v-fkYHvZlNzGSlhuuZHb-4" target="v-fkYHvZlNzGSlhuuZHb-5">
          <mxGeometry relative="1" as="geometry" />
        </mxCell>
        <mxCell id="v-fkYHvZlNzGSlhuuZHb-4" value="visitor" style="shape=umlActor;verticalLabelPosition=bottom;verticalAlign=top;html=1;outlineConnect=0;" vertex="1" parent="1">
          <mxGeometry x="120" y="140" width="45" height="90" as="geometry" />
        </mxCell>
        <mxCell id="v-fkYHvZlNzGSlhuuZHb-5" value="register" style="ellipse;whiteSpace=wrap;html=1;" vertex="1" parent="1">
          <mxGeometry x="310" y="100" width="60" height="40" as="geometry" />
        </mxCell>
        <mxCell id="v-fkYHvZlNzGSlhuuZHb-18" style="rounded=0;orthogonalLoop=1;jettySize=auto;html=1;exitX=0.5;exitY=0.5;exitDx=0;exitDy=0;exitPerimeter=0;entryX=0;entryY=0.5;entryDx=0;entryDy=0;endArrow=none;startFill=0;" edge="1" parent="1" source="v-fkYHvZlNzGSlhuuZHb-8" target="v-fkYHvZlNzGSlhuuZHb-17">
          <mxGeometry relative="1" as="geometry" />
        </mxCell>
        <mxCell id="v-fkYHvZlNzGSlhuuZHb-8" value="Client" style="shape=umlActor;verticalLabelPosition=bottom;verticalAlign=top;html=1;outlineConnect=0;" vertex="1" parent="1">
          <mxGeometry x="120" y="300" width="45" height="90" as="geometry" />
        </mxCell>
        <mxCell id="v-fkYHvZlNzGSlhuuZHb-65" style="edgeStyle=orthogonalEdgeStyle;rounded=0;orthogonalLoop=1;jettySize=auto;html=1;exitX=1;exitY=0;exitDx=0;exitDy=0;entryX=1;entryY=0;entryDx=0;entryDy=0;dashed=1;" edge="1" parent="1" source="v-fkYHvZlNzGSlhuuZHb-11" target="v-fkYHvZlNzGSlhuuZHb-64">
          <mxGeometry relative="1" as="geometry" />
        </mxCell>
        <mxCell id="v-fkYHvZlNzGSlhuuZHb-74" value="&amp;lt;&amp;lt;include&amp;gt;&amp;gt;" style="edgeLabel;html=1;align=center;verticalAlign=middle;resizable=0;points=[];" vertex="1" connectable="0" parent="v-fkYHvZlNzGSlhuuZHb-65">
          <mxGeometry x="-0.309" y="3" relative="1" as="geometry">
            <mxPoint as="offset" />
          </mxGeometry>
        </mxCell>
        <mxCell id="v-fkYHvZlNzGSlhuuZHb-11" value="explore plants" style="ellipse;whiteSpace=wrap;html=1;" vertex="1" parent="1">
          <mxGeometry x="295" y="220" width="70" height="50" as="geometry" />
        </mxCell>
        <mxCell id="v-fkYHvZlNzGSlhuuZHb-14" style="rounded=0;orthogonalLoop=1;jettySize=auto;html=1;exitX=0.5;exitY=0.5;exitDx=0;exitDy=0;exitPerimeter=0;entryX=0.033;entryY=0.683;entryDx=0;entryDy=0;entryPerimeter=0;endArrow=none;startFill=0;" edge="1" parent="1" source="v-fkYHvZlNzGSlhuuZHb-8" target="v-fkYHvZlNzGSlhuuZHb-11">
          <mxGeometry relative="1" as="geometry" />
        </mxCell>
        <mxCell id="v-fkYHvZlNzGSlhuuZHb-17" value="&lt;font style=&quot;font-size: 11px;&quot;&gt;explore plant details&lt;/font&gt;" style="ellipse;whiteSpace=wrap;html=1;" vertex="1" parent="1">
          <mxGeometry x="345" y="270" width="80" height="50" as="geometry" />
        </mxCell>
        <mxCell id="v-fkYHvZlNzGSlhuuZHb-19" style="rounded=0;orthogonalLoop=1;jettySize=auto;html=1;exitX=0.5;exitY=0.5;exitDx=0;exitDy=0;exitPerimeter=0;entryX=0;entryY=0.5;entryDx=0;entryDy=0;endArrow=none;startFill=0;" edge="1" target="v-fkYHvZlNzGSlhuuZHb-20" parent="1" source="v-fkYHvZlNzGSlhuuZHb-8">
          <mxGeometry relative="1" as="geometry">
            <mxPoint x="143" y="405" as="sourcePoint" />
          </mxGeometry>
        </mxCell>
        <mxCell id="v-fkYHvZlNzGSlhuuZHb-20" value="&lt;font style=&quot;font-size: 11px;&quot;&gt;make an order for plants&lt;/font&gt;" style="ellipse;whiteSpace=wrap;html=1;" vertex="1" parent="1">
          <mxGeometry x="330" y="340" width="85" height="50" as="geometry" />
        </mxCell>
        <mxCell id="v-fkYHvZlNzGSlhuuZHb-21" style="rounded=0;orthogonalLoop=1;jettySize=auto;html=1;entryX=0;entryY=0.5;entryDx=0;entryDy=0;endArrow=none;startFill=0;exitX=0.5;exitY=0.5;exitDx=0;exitDy=0;exitPerimeter=0;" edge="1" target="v-fkYHvZlNzGSlhuuZHb-22" parent="1" source="v-fkYHvZlNzGSlhuuZHb-8">
          <mxGeometry relative="1" as="geometry">
            <mxPoint x="143" y="405" as="sourcePoint" />
          </mxGeometry>
        </mxCell>
        <mxCell id="v-fkYHvZlNzGSlhuuZHb-22" value="&lt;font style=&quot;font-size: 9px;&quot;&gt;explore orders status&lt;/font&gt;" style="ellipse;whiteSpace=wrap;html=1;" vertex="1" parent="1">
          <mxGeometry x="295" y="400" width="75" height="50" as="geometry" />
        </mxCell>
        <mxCell id="v-fkYHvZlNzGSlhuuZHb-25" style="edgeStyle=orthogonalEdgeStyle;rounded=0;orthogonalLoop=1;jettySize=auto;html=1;exitX=0;exitY=0.5;exitDx=0;exitDy=0;entryX=1;entryY=0.5;entryDx=0;entryDy=0;dashed=1;" edge="1" parent="1" source="v-fkYHvZlNzGSlhuuZHb-23" target="v-fkYHvZlNzGSlhuuZHb-22">
          <mxGeometry relative="1" as="geometry" />
        </mxCell>
        <mxCell id="v-fkYHvZlNzGSlhuuZHb-26" value="&amp;lt;&amp;lt;extend&amp;gt;&amp;gt;" style="edgeLabel;html=1;align=center;verticalAlign=middle;resizable=0;points=[];" vertex="1" connectable="0" parent="v-fkYHvZlNzGSlhuuZHb-25">
          <mxGeometry x="-0.0148" y="-1" relative="1" as="geometry">
            <mxPoint as="offset" />
          </mxGeometry>
        </mxCell>
        <mxCell id="v-fkYHvZlNzGSlhuuZHb-23" value="&lt;font size=&quot;1&quot;&gt;Cancel an&amp;nbsp;&lt;/font&gt;&lt;div&gt;&lt;font size=&quot;1&quot;&gt;order&lt;/font&gt;&lt;/div&gt;" style="ellipse;whiteSpace=wrap;html=1;" vertex="1" parent="1">
          <mxGeometry x="490" y="400" width="75" height="50" as="geometry" />
        </mxCell>
        <mxCell id="v-fkYHvZlNzGSlhuuZHb-36" style="edgeStyle=orthogonalEdgeStyle;rounded=0;orthogonalLoop=1;jettySize=auto;html=1;exitX=0.5;exitY=0.5;exitDx=0;exitDy=0;exitPerimeter=0;entryX=0;entryY=0.5;entryDx=0;entryDy=0;endArrow=none;startFill=0;" edge="1" parent="1" source="v-fkYHvZlNzGSlhuuZHb-27" target="v-fkYHvZlNzGSlhuuZHb-30">
          <mxGeometry relative="1" as="geometry">
            <Array as="points">
              <mxPoint x="190" y="605" />
              <mxPoint x="190" y="525" />
            </Array>
          </mxGeometry>
        </mxCell>
        <mxCell id="v-fkYHvZlNzGSlhuuZHb-27" value="Employee" style="shape=umlActor;verticalLabelPosition=bottom;verticalAlign=top;html=1;outlineConnect=0;" vertex="1" parent="1">
          <mxGeometry x="120" y="560" width="45" height="90" as="geometry" />
        </mxCell>
        <mxCell id="v-fkYHvZlNzGSlhuuZHb-30" value="&lt;font style=&quot;font-size: 9px;&quot;&gt;Manage orders&lt;/font&gt;" style="ellipse;whiteSpace=wrap;html=1;" vertex="1" parent="1">
          <mxGeometry x="360" y="500" width="75" height="50" as="geometry" />
        </mxCell>
        <mxCell id="v-fkYHvZlNzGSlhuuZHb-38" style="edgeStyle=orthogonalEdgeStyle;rounded=0;orthogonalLoop=1;jettySize=auto;html=1;exitX=0.5;exitY=0;exitDx=0;exitDy=0;entryX=0.5;entryY=1;entryDx=0;entryDy=0;" edge="1" parent="1" source="v-fkYHvZlNzGSlhuuZHb-31" target="v-fkYHvZlNzGSlhuuZHb-30">
          <mxGeometry relative="1" as="geometry" />
        </mxCell>
        <mxCell id="v-fkYHvZlNzGSlhuuZHb-31" value="&lt;font style=&quot;font-size: 9px;&quot;&gt;processing&lt;/font&gt;" style="ellipse;whiteSpace=wrap;html=1;" vertex="1" parent="1">
          <mxGeometry x="255" y="590" width="75" height="50" as="geometry" />
        </mxCell>
        <mxCell id="v-fkYHvZlNzGSlhuuZHb-39" value="" style="edgeStyle=orthogonalEdgeStyle;rounded=0;orthogonalLoop=1;jettySize=auto;html=1;exitX=0.5;exitY=0;exitDx=0;exitDy=0;" edge="1" parent="1" source="v-fkYHvZlNzGSlhuuZHb-34">
          <mxGeometry relative="1" as="geometry">
            <mxPoint x="400" y="550" as="targetPoint" />
            <Array as="points">
              <mxPoint x="400" y="620" />
              <mxPoint x="400" y="600" />
              <mxPoint x="401" y="600" />
              <mxPoint x="401" y="550" />
            </Array>
          </mxGeometry>
        </mxCell>
        <mxCell id="v-fkYHvZlNzGSlhuuZHb-34" value="&lt;font size=&quot;1&quot;&gt;Ready&lt;/font&gt;" style="ellipse;whiteSpace=wrap;html=1;" vertex="1" parent="1">
          <mxGeometry x="365" y="590" width="75" height="50" as="geometry" />
        </mxCell>
        <mxCell id="v-fkYHvZlNzGSlhuuZHb-40" style="edgeStyle=orthogonalEdgeStyle;rounded=0;orthogonalLoop=1;jettySize=auto;html=1;exitX=0.5;exitY=0;exitDx=0;exitDy=0;" edge="1" parent="1" source="v-fkYHvZlNzGSlhuuZHb-35">
          <mxGeometry relative="1" as="geometry">
            <mxPoint x="400" y="550" as="targetPoint" />
          </mxGeometry>
        </mxCell>
        <mxCell id="v-fkYHvZlNzGSlhuuZHb-35" value="&lt;font size=&quot;1&quot;&gt;Delivere&lt;/font&gt;" style="ellipse;whiteSpace=wrap;html=1;" vertex="1" parent="1">
          <mxGeometry x="482.5" y="590" width="75" height="50" as="geometry" />
        </mxCell>
        <mxCell id="v-fkYHvZlNzGSlhuuZHb-61" style="edgeStyle=orthogonalEdgeStyle;rounded=0;orthogonalLoop=1;jettySize=auto;html=1;exitX=0.5;exitY=0.5;exitDx=0;exitDy=0;exitPerimeter=0;entryX=0;entryY=0.5;entryDx=0;entryDy=0;endArrow=none;startFill=0;" edge="1" parent="1" source="v-fkYHvZlNzGSlhuuZHb-41" target="v-fkYHvZlNzGSlhuuZHb-44">
          <mxGeometry relative="1" as="geometry" />
        </mxCell>
        <mxCell id="v-fkYHvZlNzGSlhuuZHb-63" style="edgeStyle=orthogonalEdgeStyle;rounded=0;orthogonalLoop=1;jettySize=auto;html=1;exitX=0.5;exitY=0.5;exitDx=0;exitDy=0;exitPerimeter=0;entryX=0.5;entryY=0;entryDx=0;entryDy=0;endArrow=none;startFill=0;" edge="1" parent="1" source="v-fkYHvZlNzGSlhuuZHb-41" target="v-fkYHvZlNzGSlhuuZHb-45">
          <mxGeometry relative="1" as="geometry">
            <Array as="points">
              <mxPoint x="143" y="750" />
              <mxPoint x="400" y="750" />
              <mxPoint x="400" y="720" />
              <mxPoint x="673" y="720" />
            </Array>
          </mxGeometry>
        </mxCell>
        <mxCell id="v-fkYHvZlNzGSlhuuZHb-41" value="Admin" style="shape=umlActor;verticalLabelPosition=bottom;verticalAlign=top;html=1;outlineConnect=0;" vertex="1" parent="1">
          <mxGeometry x="120" y="740" width="45" height="90" as="geometry" />
        </mxCell>
        <mxCell id="v-fkYHvZlNzGSlhuuZHb-42" value="&lt;font style=&quot;font-size: 9px;&quot;&gt;view statistiques&lt;/font&gt;" style="ellipse;whiteSpace=wrap;html=1;" vertex="1" parent="1">
          <mxGeometry x="295" y="690" width="75" height="50" as="geometry" />
        </mxCell>
        <mxCell id="v-fkYHvZlNzGSlhuuZHb-43" style="rounded=0;orthogonalLoop=1;jettySize=auto;html=1;exitX=0.5;exitY=0.5;exitDx=0;exitDy=0;exitPerimeter=0;entryX=0.077;entryY=0.661;entryDx=0;entryDy=0;entryPerimeter=0;endArrow=none;startFill=0;" edge="1" parent="1" source="v-fkYHvZlNzGSlhuuZHb-41" target="v-fkYHvZlNzGSlhuuZHb-42">
          <mxGeometry relative="1" as="geometry" />
        </mxCell>
        <mxCell id="v-fkYHvZlNzGSlhuuZHb-44" value="&lt;font style=&quot;font-size: 9px;&quot;&gt;manage plants&lt;/font&gt;" style="ellipse;whiteSpace=wrap;html=1;" vertex="1" parent="1">
          <mxGeometry x="325" y="760" width="75" height="50" as="geometry" />
        </mxCell>
        <mxCell id="v-fkYHvZlNzGSlhuuZHb-45" value="&lt;font style=&quot;font-size: 9px;&quot;&gt;manage categories&lt;/font&gt;" style="ellipse;whiteSpace=wrap;html=1;" vertex="1" parent="1">
          <mxGeometry x="635" y="760" width="75" height="50" as="geometry" />
        </mxCell>
        <mxCell id="v-fkYHvZlNzGSlhuuZHb-52" style="edgeStyle=orthogonalEdgeStyle;rounded=0;orthogonalLoop=1;jettySize=auto;html=1;exitX=0.5;exitY=0;exitDx=0;exitDy=0;entryX=0.5;entryY=1;entryDx=0;entryDy=0;" edge="1" parent="1" source="v-fkYHvZlNzGSlhuuZHb-48" target="v-fkYHvZlNzGSlhuuZHb-44">
          <mxGeometry relative="1" as="geometry" />
        </mxCell>
        <mxCell id="v-fkYHvZlNzGSlhuuZHb-48" value="&lt;font style=&quot;font-size: 9px;&quot;&gt;create&lt;/font&gt;" style="ellipse;whiteSpace=wrap;html=1;" vertex="1" parent="1">
          <mxGeometry x="220" y="850" width="75" height="50" as="geometry" />
        </mxCell>
        <mxCell id="v-fkYHvZlNzGSlhuuZHb-53" style="edgeStyle=orthogonalEdgeStyle;rounded=0;orthogonalLoop=1;jettySize=auto;html=1;exitX=0.5;exitY=0;exitDx=0;exitDy=0;" edge="1" parent="1" source="v-fkYHvZlNzGSlhuuZHb-49">
          <mxGeometry relative="1" as="geometry">
            <mxPoint x="360" y="810" as="targetPoint" />
          </mxGeometry>
        </mxCell>
        <mxCell id="v-fkYHvZlNzGSlhuuZHb-49" value="&lt;font style=&quot;font-size: 9px;&quot;&gt;update&lt;/font&gt;" style="ellipse;whiteSpace=wrap;html=1;" vertex="1" parent="1">
          <mxGeometry x="325" y="850" width="75" height="50" as="geometry" />
        </mxCell>
        <mxCell id="v-fkYHvZlNzGSlhuuZHb-54" style="edgeStyle=orthogonalEdgeStyle;rounded=0;orthogonalLoop=1;jettySize=auto;html=1;exitX=0.5;exitY=0;exitDx=0;exitDy=0;" edge="1" parent="1" source="v-fkYHvZlNzGSlhuuZHb-50">
          <mxGeometry relative="1" as="geometry">
            <mxPoint x="360" y="810" as="targetPoint" />
          </mxGeometry>
        </mxCell>
        <mxCell id="v-fkYHvZlNzGSlhuuZHb-50" value="&lt;font style=&quot;font-size: 9px;&quot;&gt;delete&lt;/font&gt;" style="ellipse;whiteSpace=wrap;html=1;" vertex="1" parent="1">
          <mxGeometry x="450" y="850" width="75" height="50" as="geometry" />
        </mxCell>
        <mxCell id="v-fkYHvZlNzGSlhuuZHb-55" style="edgeStyle=orthogonalEdgeStyle;rounded=0;orthogonalLoop=1;jettySize=auto;html=1;exitX=0.5;exitY=0;exitDx=0;exitDy=0;entryX=0.5;entryY=1;entryDx=0;entryDy=0;" edge="1" parent="1" source="v-fkYHvZlNzGSlhuuZHb-56">
          <mxGeometry relative="1" as="geometry">
            <mxPoint x="673" y="810" as="targetPoint" />
          </mxGeometry>
        </mxCell>
        <mxCell id="v-fkYHvZlNzGSlhuuZHb-56" value="&lt;font style=&quot;font-size: 9px;&quot;&gt;create&lt;/font&gt;" style="ellipse;whiteSpace=wrap;html=1;" vertex="1" parent="1">
          <mxGeometry x="530" y="850" width="75" height="50" as="geometry" />
        </mxCell>
        <mxCell id="v-fkYHvZlNzGSlhuuZHb-57" value="&lt;font style=&quot;font-size: 9px;&quot;&gt;update&lt;/font&gt;" style="ellipse;whiteSpace=wrap;html=1;" vertex="1" parent="1">
          <mxGeometry x="635" y="850" width="75" height="50" as="geometry" />
        </mxCell>
        <mxCell id="v-fkYHvZlNzGSlhuuZHb-58" style="edgeStyle=orthogonalEdgeStyle;rounded=0;orthogonalLoop=1;jettySize=auto;html=1;exitX=0.5;exitY=0;exitDx=0;exitDy=0;" edge="1" parent="1" source="v-fkYHvZlNzGSlhuuZHb-59">
          <mxGeometry relative="1" as="geometry">
            <mxPoint x="670" y="810" as="targetPoint" />
          </mxGeometry>
        </mxCell>
        <mxCell id="v-fkYHvZlNzGSlhuuZHb-59" value="&lt;font style=&quot;font-size: 9px;&quot;&gt;delete&lt;/font&gt;" style="ellipse;whiteSpace=wrap;html=1;" vertex="1" parent="1">
          <mxGeometry x="760" y="850" width="75" height="50" as="geometry" />
        </mxCell>
        <mxCell id="v-fkYHvZlNzGSlhuuZHb-64" value="&lt;font style=&quot;font-size: 17px;&quot;&gt;Login&lt;/font&gt;" style="ellipse;whiteSpace=wrap;html=1;" vertex="1" parent="1">
          <mxGeometry x="605" y="440" width="245" height="110" as="geometry" />
        </mxCell>
        <mxCell id="v-fkYHvZlNzGSlhuuZHb-66" style="edgeStyle=orthogonalEdgeStyle;rounded=0;orthogonalLoop=1;jettySize=auto;html=1;exitX=1;exitY=0.5;exitDx=0;exitDy=0;entryX=0.736;entryY=0.076;entryDx=0;entryDy=0;entryPerimeter=0;dashed=1;" edge="1" parent="1" source="v-fkYHvZlNzGSlhuuZHb-17" target="v-fkYHvZlNzGSlhuuZHb-64">
          <mxGeometry relative="1" as="geometry" />
        </mxCell>
        <mxCell id="v-fkYHvZlNzGSlhuuZHb-67" style="edgeStyle=orthogonalEdgeStyle;rounded=0;orthogonalLoop=1;jettySize=auto;html=1;exitX=1;exitY=0.5;exitDx=0;exitDy=0;entryX=0.658;entryY=0.049;entryDx=0;entryDy=0;entryPerimeter=0;dashed=1;" edge="1" parent="1" source="v-fkYHvZlNzGSlhuuZHb-20" target="v-fkYHvZlNzGSlhuuZHb-64">
          <mxGeometry relative="1" as="geometry" />
        </mxCell>
        <mxCell id="v-fkYHvZlNzGSlhuuZHb-68" style="edgeStyle=orthogonalEdgeStyle;rounded=0;orthogonalLoop=1;jettySize=auto;html=1;exitX=1;exitY=0.5;exitDx=0;exitDy=0;entryX=0.601;entryY=0.006;entryDx=0;entryDy=0;entryPerimeter=0;dashed=1;" edge="1" parent="1" source="v-fkYHvZlNzGSlhuuZHb-23" target="v-fkYHvZlNzGSlhuuZHb-64">
          <mxGeometry relative="1" as="geometry" />
        </mxCell>
        <mxCell id="v-fkYHvZlNzGSlhuuZHb-69" style="edgeStyle=orthogonalEdgeStyle;rounded=0;orthogonalLoop=1;jettySize=auto;html=1;exitX=0.5;exitY=1;exitDx=0;exitDy=0;entryX=0.018;entryY=0.405;entryDx=0;entryDy=0;entryPerimeter=0;dashed=1;" edge="1" parent="1" source="v-fkYHvZlNzGSlhuuZHb-22" target="v-fkYHvZlNzGSlhuuZHb-64">
          <mxGeometry relative="1" as="geometry" />
        </mxCell>
        <mxCell id="v-fkYHvZlNzGSlhuuZHb-70" style="edgeStyle=orthogonalEdgeStyle;rounded=0;orthogonalLoop=1;jettySize=auto;html=1;exitX=1;exitY=0.5;exitDx=0;exitDy=0;entryX=0.065;entryY=0.682;entryDx=0;entryDy=0;entryPerimeter=0;dashed=1;" edge="1" parent="1" source="v-fkYHvZlNzGSlhuuZHb-30" target="v-fkYHvZlNzGSlhuuZHb-64">
          <mxGeometry relative="1" as="geometry" />
        </mxCell>
        <mxCell id="v-fkYHvZlNzGSlhuuZHb-71" style="edgeStyle=orthogonalEdgeStyle;rounded=0;orthogonalLoop=1;jettySize=auto;html=1;exitX=1;exitY=0.5;exitDx=0;exitDy=0;entryX=0.403;entryY=0.96;entryDx=0;entryDy=0;entryPerimeter=0;dashed=1;" edge="1" parent="1" source="v-fkYHvZlNzGSlhuuZHb-42" target="v-fkYHvZlNzGSlhuuZHb-64">
          <mxGeometry relative="1" as="geometry" />
        </mxCell>
        <mxCell id="v-fkYHvZlNzGSlhuuZHb-72" style="edgeStyle=orthogonalEdgeStyle;rounded=0;orthogonalLoop=1;jettySize=auto;html=1;exitX=1;exitY=0.5;exitDx=0;exitDy=0;entryX=0.595;entryY=0.96;entryDx=0;entryDy=0;entryPerimeter=0;dashed=1;" edge="1" parent="1" source="v-fkYHvZlNzGSlhuuZHb-44" target="v-fkYHvZlNzGSlhuuZHb-64">
          <mxGeometry relative="1" as="geometry">
            <Array as="points">
              <mxPoint x="400" y="740" />
              <mxPoint x="751" y="740" />
            </Array>
          </mxGeometry>
        </mxCell>
        <mxCell id="v-fkYHvZlNzGSlhuuZHb-73" style="edgeStyle=orthogonalEdgeStyle;rounded=0;orthogonalLoop=1;jettySize=auto;html=1;exitX=1;exitY=0.5;exitDx=0;exitDy=0;entryX=0.787;entryY=0.928;entryDx=0;entryDy=0;entryPerimeter=0;dashed=1;" edge="1" parent="1" source="v-fkYHvZlNzGSlhuuZHb-45" target="v-fkYHvZlNzGSlhuuZHb-64">
          <mxGeometry relative="1" as="geometry" />
        </mxCell>
        <mxCell id="v-fkYHvZlNzGSlhuuZHb-81" value="&amp;lt;&amp;lt;include&amp;gt;&amp;gt;" style="edgeLabel;html=1;align=center;verticalAlign=middle;resizable=0;points=[];" vertex="1" connectable="0" parent="1">
          <mxGeometry x="604.9959263191979" y="294.9990330570582" as="geometry" />
        </mxCell>
        <mxCell id="v-fkYHvZlNzGSlhuuZHb-82" value="&amp;lt;&amp;lt;include&amp;gt;&amp;gt;" style="edgeLabel;html=1;align=center;verticalAlign=middle;resizable=0;points=[];" vertex="1" connectable="0" parent="1">
          <mxGeometry x="612.2259263191979" y="364.9990330570582" as="geometry" />
        </mxCell>
        <mxCell id="v-fkYHvZlNzGSlhuuZHb-83" value="&amp;lt;&amp;lt;include&amp;gt;&amp;gt;" style="edgeLabel;html=1;align=center;verticalAlign=middle;resizable=0;points=[];" vertex="1" connectable="0" parent="1">
          <mxGeometry x="649.9959263191979" y="419.9990330570582" as="geometry" />
        </mxCell>
        <mxCell id="v-fkYHvZlNzGSlhuuZHb-84" value="&amp;lt;&amp;lt;include&amp;gt;&amp;gt;" style="edgeLabel;html=1;align=center;verticalAlign=middle;resizable=0;points=[];" vertex="1" connectable="0" parent="1">
          <mxGeometry x="459.9959263191979" y="484.9990330570582" as="geometry" />
        </mxCell>
        <mxCell id="v-fkYHvZlNzGSlhuuZHb-85" value="&amp;lt;&amp;lt;include&amp;gt;&amp;gt;" style="edgeLabel;html=1;align=center;verticalAlign=middle;resizable=0;points=[];" vertex="1" connectable="0" parent="1">
          <mxGeometry x="527.4959263191979" y="519.9990330570582" as="geometry" />
        </mxCell>
        <mxCell id="v-fkYHvZlNzGSlhuuZHb-86" value="&amp;lt;&amp;lt;include&amp;gt;&amp;gt;" style="edgeLabel;html=1;align=center;verticalAlign=middle;resizable=0;points=[];" vertex="1" connectable="0" parent="1">
          <mxGeometry x="699.9959263191979" y="639.9990330570582" as="geometry" />
        </mxCell>
        <mxCell id="v-fkYHvZlNzGSlhuuZHb-87" value="&amp;lt;&amp;lt;include&amp;gt;&amp;gt;" style="edgeLabel;html=1;align=center;verticalAlign=middle;resizable=0;points=[];" vertex="1" connectable="0" parent="1">
          <mxGeometry x="749.9959263191979" y="679.9990330570582" as="geometry" />
        </mxCell>
        <mxCell id="v-fkYHvZlNzGSlhuuZHb-88" value="&amp;lt;&amp;lt;include&amp;gt;&amp;gt;" style="edgeLabel;html=1;align=center;verticalAlign=middle;resizable=0;points=[];" vertex="1" connectable="0" parent="1">
          <mxGeometry x="797.4959263191979" y="659.9990330570582" as="geometry" />
        </mxCell>
      </root>
    </mxGraphModel>
  </diagram>
</mxfile>
